<?xml version="1.0" standalone="no"?><!DOCTYPE svg PUBLIC "-//W3C//DTD SVG 1.1//EN" "http://www.w3.org/Graphics/SVG/1.1/DTD/svg11.dtd"><svg t="1776416226176" class="icon" viewBox="0 0 2539 1024" version="1.1" xmlns="http://www.w3.org/2000/svg" p-id="3631" xmlns:xlink="http://www.w3.org/1999/xlink" width="495.8984375" height="200"><path d="M1295.11501354 1050.94607341l-40.71124437 0c-107.97330031 0-194.70595136-86.73265105-194.70595137-194.70595135l0-676.16066747c0-118.59362491 95.58292158-215.9466006 215.9466006-215.9466006 118.59362491 0 214.1765465 97.35297569 214.1765465 215.9466006l0 676.16066747c0 107.97330031-86.73265105 194.70595136-194.70595136 194.70595135z" fill="#002630" p-id="3632"></path><path d="M1142.76991363 909.34174514l37.17113616 120.36367904c0 1.77005411 1.7700541 1.7700541 3.54010821 1.77005409l0-3.54010821-37.17113616-116.8235708c37.17113618 14.16043284 79.65243465 21.24064925 127.44389541 21.24064923 46.02140668 1.7700541 84.96259696-5.31016232 120.36367905-19.47059513l-37.17113617 116.82357082c0 1.77005411 0 1.77005411 1.77005411 3.5401082 1.77005411 0 1.77005411 0 3.54010819-1.77005411l35.40108208-120.36367901c12.39037872-5.31016232 21.24064924-10.62032462 31.86097387-17.70054103 1.77005411 0 1.7700541-1.7700541 0-3.54010821s-3.54010821-1.7700541-3.54010822-1.77005411c-38.94119026 26.55081156-90.27275927 38.94119026-152.22465289 38.94119027s-115.05351672-12.39037872-161.07492338-38.94119027c-1.77005411 0-3.54010821 0-3.54010824 1.77005411s0 3.54010821 1.77005413 3.54010821c8.85027051 7.0802164 19.47059513 12.39037872 31.86097385 15.93048691z m-1.7700541-631.90931487c-23.01070335 7.0802164-40.71124437 15.93048693-53.1016231 28.32086566-1.7700541 1.7700541-1.7700541 3.54010821 0 5.31016231 1.7700541 1.7700541 3.54010821 1.7700541 5.31016232 0 28.32086566-26.55081156 99.12302978-44.25135259 196.47600545-44.25135258 67.26205593 0 120.36367904 14.16043284 157.53481519 44.25135258 1.7700541 1.7700541 3.54010821 0 5.31016232 0 1.7700541-1.7700541 0-3.54010821 0-5.31016231-15.93048693-12.39037872-33.63102795-21.24064925-53.10162309-28.32086566l-38.94119029-261.96800727-3.5401082 0 37.17113617 258.42789907c-30.09091975-10.62032462-63.72194772-14.16043283-104.4331921-14.16043283-58.41178541 0-106.2032462 5.31016232-143.37438236 15.93048694l38.94119027-260.19795318-3.54010819 0-40.71124439 261.96800727z m148.68454467 773.51364314l-40.71124436 0c-107.97330031 0-194.70595136-86.73265105-194.70595138-194.70595135l1e-8-676.16066747c0-118.59362491 95.58292158-215.9466006 215.9466006-215.9466006s214.1765465 97.35297569 214.1765465 215.9466006l0 676.16066747c0 107.97330031-86.73265105 194.70595136-194.70595137 194.70595135z m164.61503163-288.51881884l-1e-8-116.82357082-49.56151492-23.01070333 0 44.25135259c0 15.93048693 8.8502705 35.40108208 24.78075748 56.6417313l24.78075745 38.94119026z m-369.9413076 0l24.78075742-40.71124437c15.93048693-21.24064925 24.78075744-40.71124437 24.78075746-56.6417313l0-44.25135258-49.56151489 23.01070333 1e-8 118.59362492z m369.94130759-134.52411184l1e-8-251.34768266-38.9411903 72.57221823c-5.31016232 17.70054103-8.8502705 35.40108208-8.8502705 53.1016231l0 102.66313799 47.79146079 23.01070334z m-368.1712535 0l47.79146079-23.01070334 0-102.66313799c0-17.70054103-3.54010821-35.40108208-8.8502705-53.1016231l-38.94119029-72.57221823 0 251.34768266z m359.32098298-495.61514892c10.62032462-15.93048693 14.16043283-33.63102795 7.08021641-49.56151489-8.85027051-24.78075744-23.01070335-61.95189361-77.88238055-65.49200184 40.71124437 40.71124437 37.17113618 35.40108208 51.331569 58.41178542 8.8502705 14.16043283 14.16043283 33.63102795 19.47059514 56.64173131z m-352.24076655 0c3.54010821-23.01070335 10.62032462-42.48129848 19.47059514-58.41178542 14.16043283-23.01070335 10.62032462-17.70054103 51.33156898-58.41178539-54.87167721 3.54010821-69.03211003 40.71124437-77.88238055 65.49200182-7.0802164 17.70054103-5.31016232 35.40108208 7.08021643 51.33156899z m182.31557262 775.28369723c92.04281337-1.7700541 168.15513982-35.40108208 161.07492341-70.80216412-5.31016232-23.01070335-14.16043284-58.41178541-24.78075743-104.4331921-5.31016232-15.93048693-15.93048693-23.01070335-30.09091977-23.01070334l-223.02681701 0c-17.70054103 5.31016232-28.32086566 12.39037872-30.09091976 23.01070334-3.54010821 15.93048693-23.01070335 69.03211003-23.01070333 92.04281336 0 23.01070334-3.54010821 37.17113618 24.78075743 51.331569 26.55081156 15.93048693 53.1016231 35.40108208 145.14443646 31.86097386z m130.98400366-467.29428326c8.85027051-19.47059513 21.24064925-61.9518936 28.32086565-76.11232644 5.31016232-10.62032462 5.31016232-19.47059513 0-28.32086566-31.86097386-26.55081156-79.65243465-40.71124437-143.37438237-40.71124438-93.81286747 0-146.91449058 14.16043283-164.6150316 24.78075746-19.47059513 10.62032462-28.32086566 19.47059513-19.47059513 46.02140669s23.01070335 58.41178541 26.55081153 69.03211003 7.0802164 26.55081156 30.09091976 17.70054103c24.78075744-7.0802164 56.64173131-17.70054103 99.12302978-17.70054103s93.81286748 7.0802164 100.8930839 12.3903787c8.8502705 1.7700541 33.63102795 12.39037872 42.48129849-7.0802164z m-134.52411185-424.81298478c21.24064925 0 44.25135259 1.7700541 58.4117854 1.77005408s14.16043283-3.54010821 12.39037872-5.31016229c-1.7700541-3.54010821-8.85027051-15.93048693-33.63102795-17.70054104s-60.18183952-1.7700541-74.34227235 0-38.94119026 10.62032462-40.71124437 15.93048693 1.7700541 8.8502705 14.16043281 8.85027052c14.16043283-1.7700541 42.48129848-3.54010821 63.72194774-3.5401082z" fill="#C4E9D7" p-id="3633"></path></svg>