<?xml version="1.0" standalone="no"?><!DOCTYPE svg PUBLIC "-//W3C//DTD SVG 1.1//EN" "http://www.w3.org/Graphics/SVG/1.1/DTD/svg11.dtd"><svg t="1775715533601" class="icon" viewBox="0 0 1024 1024" version="1.1" xmlns="http://www.w3.org/2000/svg" p-id="3589" xmlns:xlink="http://www.w3.org/1999/xlink" width="200" height="200"><path d="M776 840c-59.2 0-131.2-12.8-208-40-16-6.4-25.6-24-19.2-40 6.4-16 24-25.6 40-19.2 163.2 57.6 276.8 40 304-4.8 27.2-48-19.2-147.2-115.2-240-12.8-12.8-12.8-32 0-44.8 12.8-12.8 32-12.8 44.8 0 123.2 118.4 171.2 241.6 126.4 318.4-28.8 44.8-91.2 70.4-172.8 70.4zM408 721.6c-4.8 0-11.2-1.6-16-4.8C152 577.6 9.6 371.2 75.2 257.6c33.6-57.6 112-83.2 222.4-70.4 102.4 11.2 220.8 52.8 332.8 118.4 16 9.6 20.8 28.8 11.2 43.2-9.6 16-28.8 20.8-43.2 11.2-104-60.8-214.4-100.8-308.8-110.4-81.6-9.6-140.8 6.4-160 40-41.6 70.4 75.2 244.8 292.8 372.8 16 9.6 20.8 28.8 11.2 43.2-3.2 11.2-14.4 16-25.6 16z" fill="#268DFF" p-id="3590"></path><path d="M249.6 836.8c-83.2 0-147.2-24-176-75.2-65.6-113.6 78.4-318.4 320-457.6 4.8-3.2 9.6-4.8 14.4-8 16-8 35.2-3.2 43.2 12.8s3.2 35.2-12.8 43.2c-4.8 3.2-9.6 4.8-14.4 8-217.6 124.8-336 299.2-294.4 369.6 40 72 249.6 57.6 468.8-67.2 219.2-124.8 337.6-297.6 296-369.6-30.4-52.8-147.2-57.6-288-12.8-16 4.8-35.2-4.8-40-20.8-4.8-17.6 4.8-35.2 20.8-40 176-56 315.2-40 361.6 43.2 65.6 113.6-78.4 318.4-320 457.6-134.4 76.8-272 116.8-379.2 116.8z" fill="#FC7265" p-id="3591"></path><path d="M512 1000c-131.2 0-238.4-216-238.4-483.2S380.8 33.6 512 33.6s238.4 216 238.4 483.2S643.2 1000 512 1000z m0-902.4c-81.6 0-174.4 179.2-174.4 419.2S430.4 936 512 936s174.4-179.2 174.4-419.2S593.6 97.6 512 97.6z" fill="#268DFF" p-id="3592"></path></svg>